<?xml version="1.0" encoding="utf-8" standalone="no"?>
<!DOCTYPE svg PUBLIC "-//W3C//DTD SVG 1.1//EN"
  "http://www.w3.org/Graphics/SVG/1.1/DTD/svg11.dtd">
<svg xmlns:xlink="http://www.w3.org/1999/xlink" width="832pt" height="320pt" viewBox="0 0 832 320" xmlns="http://www.w3.org/2000/svg" version="1.1">
 <metadata>
  <rdf:RDF xmlns:dc="http://purl.org/dc/elements/1.1/" xmlns:cc="http://creativecommons.org/ns#" xmlns:rdf="http://www.w3.org/1999/02/22-rdf-syntax-ns#">
   <cc:Work>
    <dc:type rdf:resource="http://purl.org/dc/dcmitype/StillImage"/>
    <dc:date>2026-05-07T15:36:53.184350</dc:date>
    <dc:format>image/svg+xml</dc:format>
    <dc:creator>
     <cc:Agent>
      <dc:title>Matplotlib v3.10.6, https://matplotlib.org/</dc:title>
     </cc:Agent>
    </dc:creator>
   </cc:Work>
  </rdf:RDF>
 </metadata>
 <defs>
  <style type="text/css">*{stroke-linejoin: round; stroke-linecap: butt}</style>
 </defs>
 <g id="figure_1">
  <g id="patch_1">
   <path d="M 0 320 
L 832 320 
L 832 0 
L 0 0 
z
" style="fill: #ffffff"/>
  </g>
  <g id="axes_1">
   <g id="patch_2">
    <path d="M 104 280.673684 
L 748.8 280.673684 
L 748.8 263.299723 
L 104 263.299723 
z
" clip-path="url(#pde4a207844)" style="fill-opacity: 0.05098"/>
   </g>
   <g id="patch_3">
    <path d="M 104 258.956233 
L 748.8 258.956233 
L 748.8 241.582271 
L 104 241.582271 
L 104 258.956233 
z
" clip-path="url(#pde4a207844)" style="fill: none"/>
   </g>
   <g id="patch_4">
    <path d="M 104 237.238781 
L 748.8 237.238781 
L 748.8 219.86482 
L 104 219.86482 
z
" clip-path="url(#pde4a207844)" style="fill-opacity: 0.05098"/>
   </g>
   <g id="patch_5">
    <path d="M 104 215.52133 
L 748.8 215.52133 
L 748.8 198.147368 
L 104 198.147368 
L 104 215.52133 
z
" clip-path="url(#pde4a207844)" style="fill: none"/>
   </g>
   <g id="matplotlib.axis_1"/>
   <g id="matplotlib.axis_2">
    <g id="ytick_1"/>
    <g id="ytick_2"/>
    <g id="ytick_3"/>
    <g id="ytick_4"/>
   </g>
  </g>
  <g id="axes_2">
   <g id="matplotlib.axis_3">
    <g id="ytick_5">
     <g id="line2d_1"/>
     <g id="text_1">
      <!-- Drosophila_suzuki_GCF_043229965.1 -->
      <g transform="translate(187.669375 275.785922) scale(0.1 -0.1)">
       <defs>
        <path id="DejaVuSans-44" d="M 1259 4147 
L 1259 519 
L 2022 519 
Q 2988 519 3436 956 
Q 3884 1394 3884 2338 
Q 3884 3275 3436 3711 
Q 2988 4147 2022 4147 
L 1259 4147 
z
M 628 4666 
L 1925 4666 
Q 3281 4666 3915 4102 
Q 4550 3538 4550 2338 
Q 4550 1131 3912 565 
Q 3275 0 1925 0 
L 628 0 
L 628 4666 
z
" transform="scale(0.015625)"/>
        <path id="DejaVuSans-72" d="M 2631 2963 
Q 2534 3019 2420 3045 
Q 2306 3072 2169 3072 
Q 1681 3072 1420 2755 
Q 1159 2438 1159 1844 
L 1159 0 
L 581 0 
L 581 3500 
L 1159 3500 
L 1159 2956 
Q 1341 3275 1631 3429 
Q 1922 3584 2338 3584 
Q 2397 3584 2469 3576 
Q 2541 3569 2628 3553 
L 2631 2963 
z
" transform="scale(0.015625)"/>
        <path id="DejaVuSans-6f" d="M 1959 3097 
Q 1497 3097 1228 2736 
Q 959 2375 959 1747 
Q 959 1119 1226 758 
Q 1494 397 1959 397 
Q 2419 397 2687 759 
Q 2956 1122 2956 1747 
Q 2956 2369 2687 2733 
Q 2419 3097 1959 3097 
z
M 1959 3584 
Q 2709 3584 3137 3096 
Q 3566 2609 3566 1747 
Q 3566 888 3137 398 
Q 2709 -91 1959 -91 
Q 1206 -91 779 398 
Q 353 888 353 1747 
Q 353 2609 779 3096 
Q 1206 3584 1959 3584 
z
" transform="scale(0.015625)"/>
        <path id="DejaVuSans-73" d="M 2834 3397 
L 2834 2853 
Q 2591 2978 2328 3040 
Q 2066 3103 1784 3103 
Q 1356 3103 1142 2972 
Q 928 2841 928 2578 
Q 928 2378 1081 2264 
Q 1234 2150 1697 2047 
L 1894 2003 
Q 2506 1872 2764 1633 
Q 3022 1394 3022 966 
Q 3022 478 2636 193 
Q 2250 -91 1575 -91 
Q 1294 -91 989 -36 
Q 684 19 347 128 
L 347 722 
Q 666 556 975 473 
Q 1284 391 1588 391 
Q 1994 391 2212 530 
Q 2431 669 2431 922 
Q 2431 1156 2273 1281 
Q 2116 1406 1581 1522 
L 1381 1569 
Q 847 1681 609 1914 
Q 372 2147 372 2553 
Q 372 3047 722 3315 
Q 1072 3584 1716 3584 
Q 2034 3584 2315 3537 
Q 2597 3491 2834 3397 
z
" transform="scale(0.015625)"/>
        <path id="DejaVuSans-70" d="M 1159 525 
L 1159 -1331 
L 581 -1331 
L 581 3500 
L 1159 3500 
L 1159 2969 
Q 1341 3281 1617 3432 
Q 1894 3584 2278 3584 
Q 2916 3584 3314 3078 
Q 3713 2572 3713 1747 
Q 3713 922 3314 415 
Q 2916 -91 2278 -91 
Q 1894 -91 1617 61 
Q 1341 213 1159 525 
z
M 3116 1747 
Q 3116 2381 2855 2742 
Q 2594 3103 2138 3103 
Q 1681 3103 1420 2742 
Q 1159 2381 1159 1747 
Q 1159 1113 1420 752 
Q 1681 391 2138 391 
Q 2594 391 2855 752 
Q 3116 1113 3116 1747 
z
" transform="scale(0.015625)"/>
        <path id="DejaVuSans-68" d="M 3513 2113 
L 3513 0 
L 2938 0 
L 2938 2094 
Q 2938 2591 2744 2837 
Q 2550 3084 2163 3084 
Q 1697 3084 1428 2787 
Q 1159 2491 1159 1978 
L 1159 0 
L 581 0 
L 581 4863 
L 1159 4863 
L 1159 2956 
Q 1366 3272 1645 3428 
Q 1925 3584 2291 3584 
Q 2894 3584 3203 3211 
Q 3513 2838 3513 2113 
z
" transform="scale(0.015625)"/>
        <path id="DejaVuSans-69" d="M 603 3500 
L 1178 3500 
L 1178 0 
L 603 0 
L 603 3500 
z
M 603 4863 
L 1178 4863 
L 1178 4134 
L 603 4134 
L 603 4863 
z
" transform="scale(0.015625)"/>
        <path id="DejaVuSans-6c" d="M 603 4863 
L 1178 4863 
L 1178 0 
L 603 0 
L 603 4863 
z
" transform="scale(0.015625)"/>
        <path id="DejaVuSans-61" d="M 2194 1759 
Q 1497 1759 1228 1600 
Q 959 1441 959 1056 
Q 959 750 1161 570 
Q 1363 391 1709 391 
Q 2188 391 2477 730 
Q 2766 1069 2766 1631 
L 2766 1759 
L 2194 1759 
z
M 3341 1997 
L 3341 0 
L 2766 0 
L 2766 531 
Q 2569 213 2275 61 
Q 1981 -91 1556 -91 
Q 1019 -91 701 211 
Q 384 513 384 1019 
Q 384 1609 779 1909 
Q 1175 2209 1959 2209 
L 2766 2209 
L 2766 2266 
Q 2766 2663 2505 2880 
Q 2244 3097 1772 3097 
Q 1472 3097 1187 3025 
Q 903 2953 641 2809 
L 641 3341 
Q 956 3463 1253 3523 
Q 1550 3584 1831 3584 
Q 2591 3584 2966 3190 
Q 3341 2797 3341 1997 
z
" transform="scale(0.015625)"/>
        <path id="DejaVuSans-5f" d="M 3263 -1063 
L 3263 -1509 
L -63 -1509 
L -63 -1063 
L 3263 -1063 
z
" transform="scale(0.015625)"/>
        <path id="DejaVuSans-75" d="M 544 1381 
L 544 3500 
L 1119 3500 
L 1119 1403 
Q 1119 906 1312 657 
Q 1506 409 1894 409 
Q 2359 409 2629 706 
Q 2900 1003 2900 1516 
L 2900 3500 
L 3475 3500 
L 3475 0 
L 2900 0 
L 2900 538 
Q 2691 219 2414 64 
Q 2138 -91 1772 -91 
Q 1169 -91 856 284 
Q 544 659 544 1381 
z
M 1991 3584 
L 1991 3584 
z
" transform="scale(0.015625)"/>
        <path id="DejaVuSans-7a" d="M 353 3500 
L 3084 3500 
L 3084 2975 
L 922 459 
L 3084 459 
L 3084 0 
L 275 0 
L 275 525 
L 2438 3041 
L 353 3041 
L 353 3500 
z
" transform="scale(0.015625)"/>
        <path id="DejaVuSans-6b" d="M 581 4863 
L 1159 4863 
L 1159 1991 
L 2875 3500 
L 3609 3500 
L 1753 1863 
L 3688 0 
L 2938 0 
L 1159 1709 
L 1159 0 
L 581 0 
L 581 4863 
z
" transform="scale(0.015625)"/>
        <path id="DejaVuSans-47" d="M 3809 666 
L 3809 1919 
L 2778 1919 
L 2778 2438 
L 4434 2438 
L 4434 434 
Q 4069 175 3628 42 
Q 3188 -91 2688 -91 
Q 1594 -91 976 548 
Q 359 1188 359 2328 
Q 359 3472 976 4111 
Q 1594 4750 2688 4750 
Q 3144 4750 3555 4637 
Q 3966 4525 4313 4306 
L 4313 3634 
Q 3963 3931 3569 4081 
Q 3175 4231 2741 4231 
Q 1884 4231 1454 3753 
Q 1025 3275 1025 2328 
Q 1025 1384 1454 906 
Q 1884 428 2741 428 
Q 3075 428 3337 486 
Q 3600 544 3809 666 
z
" transform="scale(0.015625)"/>
        <path id="DejaVuSans-43" d="M 4122 4306 
L 4122 3641 
Q 3803 3938 3442 4084 
Q 3081 4231 2675 4231 
Q 1875 4231 1450 3742 
Q 1025 3253 1025 2328 
Q 1025 1406 1450 917 
Q 1875 428 2675 428 
Q 3081 428 3442 575 
Q 3803 722 4122 1019 
L 4122 359 
Q 3791 134 3420 21 
Q 3050 -91 2638 -91 
Q 1578 -91 968 557 
Q 359 1206 359 2328 
Q 359 3453 968 4101 
Q 1578 4750 2638 4750 
Q 3056 4750 3426 4639 
Q 3797 4528 4122 4306 
z
" transform="scale(0.015625)"/>
        <path id="DejaVuSans-46" d="M 628 4666 
L 3309 4666 
L 3309 4134 
L 1259 4134 
L 1259 2759 
L 3109 2759 
L 3109 2228 
L 1259 2228 
L 1259 0 
L 628 0 
L 628 4666 
z
" transform="scale(0.015625)"/>
        <path id="DejaVuSans-30" d="M 2034 4250 
Q 1547 4250 1301 3770 
Q 1056 3291 1056 2328 
Q 1056 1369 1301 889 
Q 1547 409 2034 409 
Q 2525 409 2770 889 
Q 3016 1369 3016 2328 
Q 3016 3291 2770 3770 
Q 2525 4250 2034 4250 
z
M 2034 4750 
Q 2819 4750 3233 4129 
Q 3647 3509 3647 2328 
Q 3647 1150 3233 529 
Q 2819 -91 2034 -91 
Q 1250 -91 836 529 
Q 422 1150 422 2328 
Q 422 3509 836 4129 
Q 1250 4750 2034 4750 
z
" transform="scale(0.015625)"/>
        <path id="DejaVuSans-34" d="M 2419 4116 
L 825 1625 
L 2419 1625 
L 2419 4116 
z
M 2253 4666 
L 3047 4666 
L 3047 1625 
L 3713 1625 
L 3713 1100 
L 3047 1100 
L 3047 0 
L 2419 0 
L 2419 1100 
L 313 1100 
L 313 1709 
L 2253 4666 
z
" transform="scale(0.015625)"/>
        <path id="DejaVuSans-33" d="M 2597 2516 
Q 3050 2419 3304 2112 
Q 3559 1806 3559 1356 
Q 3559 666 3084 287 
Q 2609 -91 1734 -91 
Q 1441 -91 1130 -33 
Q 819 25 488 141 
L 488 750 
Q 750 597 1062 519 
Q 1375 441 1716 441 
Q 2309 441 2620 675 
Q 2931 909 2931 1356 
Q 2931 1769 2642 2001 
Q 2353 2234 1838 2234 
L 1294 2234 
L 1294 2753 
L 1863 2753 
Q 2328 2753 2575 2939 
Q 2822 3125 2822 3475 
Q 2822 3834 2567 4026 
Q 2313 4219 1838 4219 
Q 1578 4219 1281 4162 
Q 984 4106 628 3988 
L 628 4550 
Q 988 4650 1302 4700 
Q 1616 4750 1894 4750 
Q 2613 4750 3031 4423 
Q 3450 4097 3450 3541 
Q 3450 3153 3228 2886 
Q 3006 2619 2597 2516 
z
" transform="scale(0.015625)"/>
        <path id="DejaVuSans-32" d="M 1228 531 
L 3431 531 
L 3431 0 
L 469 0 
L 469 531 
Q 828 903 1448 1529 
Q 2069 2156 2228 2338 
Q 2531 2678 2651 2914 
Q 2772 3150 2772 3378 
Q 2772 3750 2511 3984 
Q 2250 4219 1831 4219 
Q 1534 4219 1204 4116 
Q 875 4013 500 3803 
L 500 4441 
Q 881 4594 1212 4672 
Q 1544 4750 1819 4750 
Q 2544 4750 2975 4387 
Q 3406 4025 3406 3419 
Q 3406 3131 3298 2873 
Q 3191 2616 2906 2266 
Q 2828 2175 2409 1742 
Q 1991 1309 1228 531 
z
" transform="scale(0.015625)"/>
        <path id="DejaVuSans-39" d="M 703 97 
L 703 672 
Q 941 559 1184 500 
Q 1428 441 1663 441 
Q 2288 441 2617 861 
Q 2947 1281 2994 2138 
Q 2813 1869 2534 1725 
Q 2256 1581 1919 1581 
Q 1219 1581 811 2004 
Q 403 2428 403 3163 
Q 403 3881 828 4315 
Q 1253 4750 1959 4750 
Q 2769 4750 3195 4129 
Q 3622 3509 3622 2328 
Q 3622 1225 3098 567 
Q 2575 -91 1691 -91 
Q 1453 -91 1209 -44 
Q 966 3 703 97 
z
M 1959 2075 
Q 2384 2075 2632 2365 
Q 2881 2656 2881 3163 
Q 2881 3666 2632 3958 
Q 2384 4250 1959 4250 
Q 1534 4250 1286 3958 
Q 1038 3666 1038 3163 
Q 1038 2656 1286 2365 
Q 1534 2075 1959 2075 
z
" transform="scale(0.015625)"/>
        <path id="DejaVuSans-36" d="M 2113 2584 
Q 1688 2584 1439 2293 
Q 1191 2003 1191 1497 
Q 1191 994 1439 701 
Q 1688 409 2113 409 
Q 2538 409 2786 701 
Q 3034 994 3034 1497 
Q 3034 2003 2786 2293 
Q 2538 2584 2113 2584 
z
M 3366 4563 
L 3366 3988 
Q 3128 4100 2886 4159 
Q 2644 4219 2406 4219 
Q 1781 4219 1451 3797 
Q 1122 3375 1075 2522 
Q 1259 2794 1537 2939 
Q 1816 3084 2150 3084 
Q 2853 3084 3261 2657 
Q 3669 2231 3669 1497 
Q 3669 778 3244 343 
Q 2819 -91 2113 -91 
Q 1303 -91 875 529 
Q 447 1150 447 2328 
Q 447 3434 972 4092 
Q 1497 4750 2381 4750 
Q 2619 4750 2861 4703 
Q 3103 4656 3366 4563 
z
" transform="scale(0.015625)"/>
        <path id="DejaVuSans-35" d="M 691 4666 
L 3169 4666 
L 3169 4134 
L 1269 4134 
L 1269 2991 
Q 1406 3038 1543 3061 
Q 1681 3084 1819 3084 
Q 2600 3084 3056 2656 
Q 3513 2228 3513 1497 
Q 3513 744 3044 326 
Q 2575 -91 1722 -91 
Q 1428 -91 1123 -41 
Q 819 9 494 109 
L 494 744 
Q 775 591 1075 516 
Q 1375 441 1709 441 
Q 2250 441 2565 725 
Q 2881 1009 2881 1497 
Q 2881 1984 2565 2268 
Q 2250 2553 1709 2553 
Q 1456 2553 1204 2497 
Q 953 2441 691 2322 
L 691 4666 
z
" transform="scale(0.015625)"/>
        <path id="DejaVuSans-2e" d="M 684 794 
L 1344 794 
L 1344 0 
L 684 0 
L 684 794 
z
" transform="scale(0.015625)"/>
        <path id="DejaVuSans-31" d="M 794 531 
L 1825 531 
L 1825 4091 
L 703 3866 
L 703 4441 
L 1819 4666 
L 2450 4666 
L 2450 531 
L 3481 531 
L 3481 0 
L 794 0 
L 794 531 
z
" transform="scale(0.015625)"/>
       </defs>
       <use xlink:href="#DejaVuSans-44"/>
       <use xlink:href="#DejaVuSans-72" transform="translate(77.001953 0)"/>
       <use xlink:href="#DejaVuSans-6f" transform="translate(115.865234 0)"/>
       <use xlink:href="#DejaVuSans-73" transform="translate(177.046875 0)"/>
       <use xlink:href="#DejaVuSans-6f" transform="translate(229.146484 0)"/>
       <use xlink:href="#DejaVuSans-70" transform="translate(290.328125 0)"/>
       <use xlink:href="#DejaVuSans-68" transform="translate(353.804688 0)"/>
       <use xlink:href="#DejaVuSans-69" transform="translate(417.183594 0)"/>
       <use xlink:href="#DejaVuSans-6c" transform="translate(444.966797 0)"/>
       <use xlink:href="#DejaVuSans-61" transform="translate(472.75 0)"/>
       <use xlink:href="#DejaVuSans-5f" transform="translate(534.029297 0)"/>
       <use xlink:href="#DejaVuSans-73" transform="translate(584.029297 0)"/>
       <use xlink:href="#DejaVuSans-75" transform="translate(636.128906 0)"/>
       <use xlink:href="#DejaVuSans-7a" transform="translate(699.507812 0)"/>
       <use xlink:href="#DejaVuSans-75" transform="translate(751.998047 0)"/>
       <use xlink:href="#DejaVuSans-6b" transform="translate(815.376953 0)"/>
       <use xlink:href="#DejaVuSans-69" transform="translate(873.287109 0)"/>
       <use xlink:href="#DejaVuSans-5f" transform="translate(901.070312 0)"/>
       <use xlink:href="#DejaVuSans-47" transform="translate(951.070312 0)"/>
       <use xlink:href="#DejaVuSans-43" transform="translate(1028.560547 0)"/>
       <use xlink:href="#DejaVuSans-46" transform="translate(1098.384766 0)"/>
       <use xlink:href="#DejaVuSans-5f" transform="translate(1155.904297 0)"/>
       <use xlink:href="#DejaVuSans-30" transform="translate(1205.904297 0)"/>
       <use xlink:href="#DejaVuSans-34" transform="translate(1269.527344 0)"/>
       <use xlink:href="#DejaVuSans-33" transform="translate(1333.150391 0)"/>
       <use xlink:href="#DejaVuSans-32" transform="translate(1396.773438 0)"/>
       <use xlink:href="#DejaVuSans-32" transform="translate(1460.396484 0)"/>
       <use xlink:href="#DejaVuSans-39" transform="translate(1524.019531 0)"/>
       <use xlink:href="#DejaVuSans-39" transform="translate(1587.642578 0)"/>
       <use xlink:href="#DejaVuSans-36" transform="translate(1651.265625 0)"/>
       <use xlink:href="#DejaVuSans-35" transform="translate(1714.888672 0)"/>
       <use xlink:href="#DejaVuSans-2e" transform="translate(1778.511719 0)"/>
       <use xlink:href="#DejaVuSans-31" transform="translate(1810.298828 0)"/>
      </g>
     </g>
    </g>
    <g id="ytick_6">
     <g id="line2d_2"/>
     <g id="text_2">
      <!-- Drosophila_melanogaster_GCF_000001215.4 -->
      <g transform="translate(150.244375 254.068471) scale(0.1 -0.1)">
       <defs>
        <path id="DejaVuSans-6d" d="M 3328 2828 
Q 3544 3216 3844 3400 
Q 4144 3584 4550 3584 
Q 5097 3584 5394 3201 
Q 5691 2819 5691 2113 
L 5691 0 
L 5113 0 
L 5113 2094 
Q 5113 2597 4934 2840 
Q 4756 3084 4391 3084 
Q 3944 3084 3684 2787 
Q 3425 2491 3425 1978 
L 3425 0 
L 2847 0 
L 2847 2094 
Q 2847 2600 2669 2842 
Q 2491 3084 2119 3084 
Q 1678 3084 1418 2786 
Q 1159 2488 1159 1978 
L 1159 0 
L 581 0 
L 581 3500 
L 1159 3500 
L 1159 2956 
Q 1356 3278 1631 3431 
Q 1906 3584 2284 3584 
Q 2666 3584 2933 3390 
Q 3200 3197 3328 2828 
z
" transform="scale(0.015625)"/>
        <path id="DejaVuSans-65" d="M 3597 1894 
L 3597 1613 
L 953 1613 
Q 991 1019 1311 708 
Q 1631 397 2203 397 
Q 2534 397 2845 478 
Q 3156 559 3463 722 
L 3463 178 
Q 3153 47 2828 -22 
Q 2503 -91 2169 -91 
Q 1331 -91 842 396 
Q 353 884 353 1716 
Q 353 2575 817 3079 
Q 1281 3584 2069 3584 
Q 2775 3584 3186 3129 
Q 3597 2675 3597 1894 
z
M 3022 2063 
Q 3016 2534 2758 2815 
Q 2500 3097 2075 3097 
Q 1594 3097 1305 2825 
Q 1016 2553 972 2059 
L 3022 2063 
z
" transform="scale(0.015625)"/>
        <path id="DejaVuSans-6e" d="M 3513 2113 
L 3513 0 
L 2938 0 
L 2938 2094 
Q 2938 2591 2744 2837 
Q 2550 3084 2163 3084 
Q 1697 3084 1428 2787 
Q 1159 2491 1159 1978 
L 1159 0 
L 581 0 
L 581 3500 
L 1159 3500 
L 1159 2956 
Q 1366 3272 1645 3428 
Q 1925 3584 2291 3584 
Q 2894 3584 3203 3211 
Q 3513 2838 3513 2113 
z
" transform="scale(0.015625)"/>
        <path id="DejaVuSans-67" d="M 2906 1791 
Q 2906 2416 2648 2759 
Q 2391 3103 1925 3103 
Q 1463 3103 1205 2759 
Q 947 2416 947 1791 
Q 947 1169 1205 825 
Q 1463 481 1925 481 
Q 2391 481 2648 825 
Q 2906 1169 2906 1791 
z
M 3481 434 
Q 3481 -459 3084 -895 
Q 2688 -1331 1869 -1331 
Q 1566 -1331 1297 -1286 
Q 1028 -1241 775 -1147 
L 775 -588 
Q 1028 -725 1275 -790 
Q 1522 -856 1778 -856 
Q 2344 -856 2625 -561 
Q 2906 -266 2906 331 
L 2906 616 
Q 2728 306 2450 153 
Q 2172 0 1784 0 
Q 1141 0 747 490 
Q 353 981 353 1791 
Q 353 2603 747 3093 
Q 1141 3584 1784 3584 
Q 2172 3584 2450 3431 
Q 2728 3278 2906 2969 
L 2906 3500 
L 3481 3500 
L 3481 434 
z
" transform="scale(0.015625)"/>
        <path id="DejaVuSans-74" d="M 1172 4494 
L 1172 3500 
L 2356 3500 
L 2356 3053 
L 1172 3053 
L 1172 1153 
Q 1172 725 1289 603 
Q 1406 481 1766 481 
L 2356 481 
L 2356 0 
L 1766 0 
Q 1100 0 847 248 
Q 594 497 594 1153 
L 594 3053 
L 172 3053 
L 172 3500 
L 594 3500 
L 594 4494 
L 1172 4494 
z
" transform="scale(0.015625)"/>
       </defs>
       <use xlink:href="#DejaVuSans-44"/>
       <use xlink:href="#DejaVuSans-72" transform="translate(77.001953 0)"/>
       <use xlink:href="#DejaVuSans-6f" transform="translate(115.865234 0)"/>
       <use xlink:href="#DejaVuSans-73" transform="translate(177.046875 0)"/>
       <use xlink:href="#DejaVuSans-6f" transform="translate(229.146484 0)"/>
       <use xlink:href="#DejaVuSans-70" transform="translate(290.328125 0)"/>
       <use xlink:href="#DejaVuSans-68" transform="translate(353.804688 0)"/>
       <use xlink:href="#DejaVuSans-69" transform="translate(417.183594 0)"/>
       <use xlink:href="#DejaVuSans-6c" transform="translate(444.966797 0)"/>
       <use xlink:href="#DejaVuSans-61" transform="translate(472.75 0)"/>
       <use xlink:href="#DejaVuSans-5f" transform="translate(534.029297 0)"/>
       <use xlink:href="#DejaVuSans-6d" transform="translate(584.029297 0)"/>
       <use xlink:href="#DejaVuSans-65" transform="translate(681.441406 0)"/>
       <use xlink:href="#DejaVuSans-6c" transform="translate(742.964844 0)"/>
       <use xlink:href="#DejaVuSans-61" transform="translate(770.748047 0)"/>
       <use xlink:href="#DejaVuSans-6e" transform="translate(832.027344 0)"/>
       <use xlink:href="#DejaVuSans-6f" transform="translate(895.40625 0)"/>
       <use xlink:href="#DejaVuSans-67" transform="translate(956.587891 0)"/>
       <use xlink:href="#DejaVuSans-61" transform="translate(1020.064453 0)"/>
       <use xlink:href="#DejaVuSans-73" transform="translate(1081.34375 0)"/>
       <use xlink:href="#DejaVuSans-74" transform="translate(1133.443359 0)"/>
       <use xlink:href="#DejaVuSans-65" transform="translate(1172.652344 0)"/>
       <use xlink:href="#DejaVuSans-72" transform="translate(1234.175781 0)"/>
       <use xlink:href="#DejaVuSans-5f" transform="translate(1275.289062 0)"/>
       <use xlink:href="#DejaVuSans-47" transform="translate(1325.289062 0)"/>
       <use xlink:href="#DejaVuSans-43" transform="translate(1402.779297 0)"/>
       <use xlink:href="#DejaVuSans-46" transform="translate(1472.603516 0)"/>
       <use xlink:href="#DejaVuSans-5f" transform="translate(1530.123047 0)"/>
       <use xlink:href="#DejaVuSans-30" transform="translate(1580.123047 0)"/>
       <use xlink:href="#DejaVuSans-30" transform="translate(1643.746094 0)"/>
       <use xlink:href="#DejaVuSans-30" transform="translate(1707.369141 0)"/>
       <use xlink:href="#DejaVuSans-30" transform="translate(1770.992188 0)"/>
       <use xlink:href="#DejaVuSans-30" transform="translate(1834.615234 0)"/>
       <use xlink:href="#DejaVuSans-31" transform="translate(1898.238281 0)"/>
       <use xlink:href="#DejaVuSans-32" transform="translate(1961.861328 0)"/>
       <use xlink:href="#DejaVuSans-31" transform="translate(2025.484375 0)"/>
       <use xlink:href="#DejaVuSans-35" transform="translate(2089.107422 0)"/>
       <use xlink:href="#DejaVuSans-2e" transform="translate(2152.730469 0)"/>
       <use xlink:href="#DejaVuSans-34" transform="translate(2184.517578 0)"/>
      </g>
     </g>
    </g>
    <g id="ytick_7">
     <g id="line2d_3"/>
     <g id="text_3">
      <!-- Drosophila_sechellia_GCF_004382195.2 -->
      <g transform="translate(175.556875 232.351019) scale(0.1 -0.1)">
       <defs>
        <path id="DejaVuSans-63" d="M 3122 3366 
L 3122 2828 
Q 2878 2963 2633 3030 
Q 2388 3097 2138 3097 
Q 1578 3097 1268 2742 
Q 959 2388 959 1747 
Q 959 1106 1268 751 
Q 1578 397 2138 397 
Q 2388 397 2633 464 
Q 2878 531 3122 666 
L 3122 134 
Q 2881 22 2623 -34 
Q 2366 -91 2075 -91 
Q 1284 -91 818 406 
Q 353 903 353 1747 
Q 353 2603 823 3093 
Q 1294 3584 2113 3584 
Q 2378 3584 2631 3529 
Q 2884 3475 3122 3366 
z
" transform="scale(0.015625)"/>
        <path id="DejaVuSans-38" d="M 2034 2216 
Q 1584 2216 1326 1975 
Q 1069 1734 1069 1313 
Q 1069 891 1326 650 
Q 1584 409 2034 409 
Q 2484 409 2743 651 
Q 3003 894 3003 1313 
Q 3003 1734 2745 1975 
Q 2488 2216 2034 2216 
z
M 1403 2484 
Q 997 2584 770 2862 
Q 544 3141 544 3541 
Q 544 4100 942 4425 
Q 1341 4750 2034 4750 
Q 2731 4750 3128 4425 
Q 3525 4100 3525 3541 
Q 3525 3141 3298 2862 
Q 3072 2584 2669 2484 
Q 3125 2378 3379 2068 
Q 3634 1759 3634 1313 
Q 3634 634 3220 271 
Q 2806 -91 2034 -91 
Q 1263 -91 848 271 
Q 434 634 434 1313 
Q 434 1759 690 2068 
Q 947 2378 1403 2484 
z
M 1172 3481 
Q 1172 3119 1398 2916 
Q 1625 2713 2034 2713 
Q 2441 2713 2670 2916 
Q 2900 3119 2900 3481 
Q 2900 3844 2670 4047 
Q 2441 4250 2034 4250 
Q 1625 4250 1398 4047 
Q 1172 3844 1172 3481 
z
" transform="scale(0.015625)"/>
       </defs>
       <use xlink:href="#DejaVuSans-44"/>
       <use xlink:href="#DejaVuSans-72" transform="translate(77.001953 0)"/>
       <use xlink:href="#DejaVuSans-6f" transform="translate(115.865234 0)"/>
       <use xlink:href="#DejaVuSans-73" transform="translate(177.046875 0)"/>
       <use xlink:href="#DejaVuSans-6f" transform="translate(229.146484 0)"/>
       <use xlink:href="#DejaVuSans-70" transform="translate(290.328125 0)"/>
       <use xlink:href="#DejaVuSans-68" transform="translate(353.804688 0)"/>
       <use xlink:href="#DejaVuSans-69" transform="translate(417.183594 0)"/>
       <use xlink:href="#DejaVuSans-6c" transform="translate(444.966797 0)"/>
       <use xlink:href="#DejaVuSans-61" transform="translate(472.75 0)"/>
       <use xlink:href="#DejaVuSans-5f" transform="translate(534.029297 0)"/>
       <use xlink:href="#DejaVuSans-73" transform="translate(584.029297 0)"/>
       <use xlink:href="#DejaVuSans-65" transform="translate(636.128906 0)"/>
       <use xlink:href="#DejaVuSans-63" transform="translate(697.652344 0)"/>
       <use xlink:href="#DejaVuSans-68" transform="translate(752.632812 0)"/>
       <use xlink:href="#DejaVuSans-65" transform="translate(816.011719 0)"/>
       <use xlink:href="#DejaVuSans-6c" transform="translate(877.535156 0)"/>
       <use xlink:href="#DejaVuSans-6c" transform="translate(905.318359 0)"/>
       <use xlink:href="#DejaVuSans-69" transform="translate(933.101562 0)"/>
       <use xlink:href="#DejaVuSans-61" transform="translate(960.884766 0)"/>
       <use xlink:href="#DejaVuSans-5f" transform="translate(1022.164062 0)"/>
       <use xlink:href="#DejaVuSans-47" transform="translate(1072.164062 0)"/>
       <use xlink:href="#DejaVuSans-43" transform="translate(1149.654297 0)"/>
       <use xlink:href="#DejaVuSans-46" transform="translate(1219.478516 0)"/>
       <use xlink:href="#DejaVuSans-5f" transform="translate(1276.998047 0)"/>
       <use xlink:href="#DejaVuSans-30" transform="translate(1326.998047 0)"/>
       <use xlink:href="#DejaVuSans-30" transform="translate(1390.621094 0)"/>
       <use xlink:href="#DejaVuSans-34" transform="translate(1454.244141 0)"/>
       <use xlink:href="#DejaVuSans-33" transform="translate(1517.867188 0)"/>
       <use xlink:href="#DejaVuSans-38" transform="translate(1581.490234 0)"/>
       <use xlink:href="#DejaVuSans-32" transform="translate(1645.113281 0)"/>
       <use xlink:href="#DejaVuSans-31" transform="translate(1708.736328 0)"/>
       <use xlink:href="#DejaVuSans-39" transform="translate(1772.359375 0)"/>
       <use xlink:href="#DejaVuSans-35" transform="translate(1835.982422 0)"/>
       <use xlink:href="#DejaVuSans-2e" transform="translate(1899.605469 0)"/>
       <use xlink:href="#DejaVuSans-32" transform="translate(1931.392578 0)"/>
      </g>
     </g>
    </g>
    <g id="ytick_8">
     <g id="line2d_4"/>
     <g id="text_4">
      <!-- Drosophila_simulans_GCF_016746395.2 -->
      <g transform="translate(174.852187 210.633568) scale(0.1 -0.1)">
       <defs>
        <path id="DejaVuSans-37" d="M 525 4666 
L 3525 4666 
L 3525 4397 
L 1831 0 
L 1172 0 
L 2766 4134 
L 525 4134 
L 525 4666 
z
" transform="scale(0.015625)"/>
       </defs>
       <use xlink:href="#DejaVuSans-44"/>
       <use xlink:href="#DejaVuSans-72" transform="translate(77.001953 0)"/>
       <use xlink:href="#DejaVuSans-6f" transform="translate(115.865234 0)"/>
       <use xlink:href="#DejaVuSans-73" transform="translate(177.046875 0)"/>
       <use xlink:href="#DejaVuSans-6f" transform="translate(229.146484 0)"/>
       <use xlink:href="#DejaVuSans-70" transform="translate(290.328125 0)"/>
       <use xlink:href="#DejaVuSans-68" transform="translate(353.804688 0)"/>
       <use xlink:href="#DejaVuSans-69" transform="translate(417.183594 0)"/>
       <use xlink:href="#DejaVuSans-6c" transform="translate(444.966797 0)"/>
       <use xlink:href="#DejaVuSans-61" transform="translate(472.75 0)"/>
       <use xlink:href="#DejaVuSans-5f" transform="translate(534.029297 0)"/>
       <use xlink:href="#DejaVuSans-73" transform="translate(584.029297 0)"/>
       <use xlink:href="#DejaVuSans-69" transform="translate(636.128906 0)"/>
       <use xlink:href="#DejaVuSans-6d" transform="translate(663.912109 0)"/>
       <use xlink:href="#DejaVuSans-75" transform="translate(761.324219 0)"/>
       <use xlink:href="#DejaVuSans-6c" transform="translate(824.703125 0)"/>
       <use xlink:href="#DejaVuSans-61" transform="translate(852.486328 0)"/>
       <use xlink:href="#DejaVuSans-6e" transform="translate(913.765625 0)"/>
       <use xlink:href="#DejaVuSans-73" transform="translate(977.144531 0)"/>
       <use xlink:href="#DejaVuSans-5f" transform="translate(1029.244141 0)"/>
       <use xlink:href="#DejaVuSans-47" transform="translate(1079.244141 0)"/>
       <use xlink:href="#DejaVuSans-43" transform="translate(1156.734375 0)"/>
       <use xlink:href="#DejaVuSans-46" transform="translate(1226.558594 0)"/>
       <use xlink:href="#DejaVuSans-5f" transform="translate(1284.078125 0)"/>
       <use xlink:href="#DejaVuSans-30" transform="translate(1334.078125 0)"/>
       <use xlink:href="#DejaVuSans-31" transform="translate(1397.701172 0)"/>
       <use xlink:href="#DejaVuSans-36" transform="translate(1461.324219 0)"/>
       <use xlink:href="#DejaVuSans-37" transform="translate(1524.947266 0)"/>
       <use xlink:href="#DejaVuSans-34" transform="translate(1588.570312 0)"/>
       <use xlink:href="#DejaVuSans-36" transform="translate(1652.193359 0)"/>
       <use xlink:href="#DejaVuSans-33" transform="translate(1715.816406 0)"/>
       <use xlink:href="#DejaVuSans-39" transform="translate(1779.439453 0)"/>
       <use xlink:href="#DejaVuSans-35" transform="translate(1843.0625 0)"/>
       <use xlink:href="#DejaVuSans-2e" transform="translate(1906.685547 0)"/>
       <use xlink:href="#DejaVuSans-32" transform="translate(1938.472656 0)"/>
      </g>
     </g>
    </g>
   </g>
   <g id="LineCollection_1">
    <path d="M 390.901333 271.986704 
L 390.901333 271.986704 
" clip-path="url(#pdde4af0519)" style="fill: none; stroke: #000000; stroke-width: 2"/>
    <path d="M 415.584 250.269252 
L 415.584 250.269252 
" clip-path="url(#pdde4af0519)" style="fill: none; stroke: #000000; stroke-width: 2"/>
    <path d="M 440.266667 228.551801 
L 440.266667 228.551801 
" clip-path="url(#pdde4af0519)" style="fill: none; stroke: #000000; stroke-width: 2"/>
    <path d="M 464.949333 206.834349 
L 464.949333 206.834349 
" clip-path="url(#pdde4af0519)" style="fill: none; stroke: #000000; stroke-width: 2"/>
    <path d="M 489.632 271.986704 
L 489.632 250.269252 
" clip-path="url(#pdde4af0519)" style="fill: none; stroke: #000000; stroke-width: 2"/>
    <path d="M 514.314667 271.986704 
L 514.314667 228.551801 
" clip-path="url(#pdde4af0519)" style="fill: none; stroke: #000000; stroke-width: 2"/>
    <path d="M 538.997333 250.269252 
L 538.997333 228.551801 
" clip-path="url(#pdde4af0519)" style="fill: none; stroke: #000000; stroke-width: 2"/>
    <path d="M 563.68 271.986704 
L 563.68 206.834349 
" clip-path="url(#pdde4af0519)" style="fill: none; stroke: #000000; stroke-width: 2"/>
    <path d="M 588.362667 250.269252 
L 588.362667 206.834349 
" clip-path="url(#pdde4af0519)" style="fill: none; stroke: #000000; stroke-width: 2"/>
    <path d="M 613.045333 228.551801 
L 613.045333 206.834349 
" clip-path="url(#pdde4af0519)" style="fill: none; stroke: #000000; stroke-width: 2"/>
    <path d="M 637.728 271.986704 
L 637.728 228.551801 
" clip-path="url(#pdde4af0519)" style="fill: none; stroke: #000000; stroke-width: 2"/>
    <path d="M 662.410667 271.986704 
L 662.410667 206.834349 
" clip-path="url(#pdde4af0519)" style="fill: none; stroke: #000000; stroke-width: 2"/>
    <path d="M 687.093333 271.986704 
L 687.093333 206.834349 
" clip-path="url(#pdde4af0519)" style="fill: none; stroke: #000000; stroke-width: 2"/>
    <path d="M 711.776 250.269252 
L 711.776 206.834349 
" clip-path="url(#pdde4af0519)" style="fill: none; stroke: #000000; stroke-width: 2"/>
    <path d="M 736.458667 271.986704 
L 736.458667 206.834349 
" clip-path="url(#pdde4af0519)" style="fill: none; stroke: #000000; stroke-width: 2"/>
   </g>
   <g id="PathCollection_1">
    <defs>
     <path id="C0_0_82a6bb7d14" d="M 0 5.6 
C 1.485137 5.6 2.909647 5.009949 3.959798 3.959798 
C 5.009949 2.909647 5.6 1.485137 5.6 -0 
C 5.6 -1.485137 5.009949 -2.909647 3.959798 -3.959798 
C 2.909647 -5.009949 1.485137 -5.6 0 -5.6 
C -1.485137 -5.6 -2.909647 -5.009949 -3.959798 -3.959798 
C -5.009949 -2.909647 -5.6 -1.485137 -5.6 0 
C -5.6 1.485137 -5.009949 2.909647 -3.959798 3.959798 
C -2.909647 5.009949 -1.485137 5.6 0 5.6 
z
"/>
    </defs>
    <g clip-path="url(#pdde4af0519)">
     <use xlink:href="#C0_0_82a6bb7d14" x="390.901333" y="271.986704" style="stroke: #000000"/>
    </g>
    <g clip-path="url(#pdde4af0519)">
     <use xlink:href="#C0_0_82a6bb7d14" x="390.901333" y="250.269252" style="fill-opacity: 0.180392"/>
    </g>
    <g clip-path="url(#pdde4af0519)">
     <use xlink:href="#C0_0_82a6bb7d14" x="390.901333" y="228.551801" style="fill-opacity: 0.180392"/>
    </g>
    <g clip-path="url(#pdde4af0519)">
     <use xlink:href="#C0_0_82a6bb7d14" x="390.901333" y="206.834349" style="fill-opacity: 0.180392"/>
    </g>
    <g clip-path="url(#pdde4af0519)">
     <use xlink:href="#C0_0_82a6bb7d14" x="415.584" y="271.986704" style="fill-opacity: 0.180392"/>
    </g>
    <g clip-path="url(#pdde4af0519)">
     <use xlink:href="#C0_0_82a6bb7d14" x="415.584" y="250.269252" style="stroke: #000000"/>
    </g>
    <g clip-path="url(#pdde4af0519)">
     <use xlink:href="#C0_0_82a6bb7d14" x="415.584" y="228.551801" style="fill-opacity: 0.180392"/>
    </g>
    <g clip-path="url(#pdde4af0519)">
     <use xlink:href="#C0_0_82a6bb7d14" x="415.584" y="206.834349" style="fill-opacity: 0.180392"/>
    </g>
    <g clip-path="url(#pdde4af0519)">
     <use xlink:href="#C0_0_82a6bb7d14" x="440.266667" y="271.986704" style="fill-opacity: 0.180392"/>
    </g>
    <g clip-path="url(#pdde4af0519)">
     <use xlink:href="#C0_0_82a6bb7d14" x="440.266667" y="250.269252" style="fill-opacity: 0.180392"/>
    </g>
    <g clip-path="url(#pdde4af0519)">
     <use xlink:href="#C0_0_82a6bb7d14" x="440.266667" y="228.551801" style="stroke: #000000"/>
    </g>
    <g clip-path="url(#pdde4af0519)">
     <use xlink:href="#C0_0_82a6bb7d14" x="440.266667" y="206.834349" style="fill-opacity: 0.180392"/>
    </g>
    <g clip-path="url(#pdde4af0519)">
     <use xlink:href="#C0_0_82a6bb7d14" x="464.949333" y="271.986704" style="fill-opacity: 0.180392"/>
    </g>
    <g clip-path="url(#pdde4af0519)">
     <use xlink:href="#C0_0_82a6bb7d14" x="464.949333" y="250.269252" style="fill-opacity: 0.180392"/>
    </g>
    <g clip-path="url(#pdde4af0519)">
     <use xlink:href="#C0_0_82a6bb7d14" x="464.949333" y="228.551801" style="fill-opacity: 0.180392"/>
    </g>
    <g clip-path="url(#pdde4af0519)">
     <use xlink:href="#C0_0_82a6bb7d14" x="464.949333" y="206.834349" style="stroke: #000000"/>
    </g>
    <g clip-path="url(#pdde4af0519)">
     <use xlink:href="#C0_0_82a6bb7d14" x="489.632" y="271.986704" style="stroke: #000000"/>
    </g>
    <g clip-path="url(#pdde4af0519)">
     <use xlink:href="#C0_0_82a6bb7d14" x="489.632" y="250.269252" style="stroke: #000000"/>
    </g>
    <g clip-path="url(#pdde4af0519)">
     <use xlink:href="#C0_0_82a6bb7d14" x="489.632" y="228.551801" style="fill-opacity: 0.180392"/>
    </g>
    <g clip-path="url(#pdde4af0519)">
     <use xlink:href="#C0_0_82a6bb7d14" x="489.632" y="206.834349" style="fill-opacity: 0.180392"/>
    </g>
    <g clip-path="url(#pdde4af0519)">
     <use xlink:href="#C0_0_82a6bb7d14" x="514.314667" y="271.986704" style="stroke: #000000"/>
    </g>
    <g clip-path="url(#pdde4af0519)">
     <use xlink:href="#C0_0_82a6bb7d14" x="514.314667" y="250.269252" style="fill-opacity: 0.180392"/>
    </g>
    <g clip-path="url(#pdde4af0519)">
     <use xlink:href="#C0_0_82a6bb7d14" x="514.314667" y="228.551801" style="stroke: #000000"/>
    </g>
    <g clip-path="url(#pdde4af0519)">
     <use xlink:href="#C0_0_82a6bb7d14" x="514.314667" y="206.834349" style="fill-opacity: 0.180392"/>
    </g>
    <g clip-path="url(#pdde4af0519)">
     <use xlink:href="#C0_0_82a6bb7d14" x="538.997333" y="271.986704" style="fill-opacity: 0.180392"/>
    </g>
    <g clip-path="url(#pdde4af0519)">
     <use xlink:href="#C0_0_82a6bb7d14" x="538.997333" y="250.269252" style="stroke: #000000"/>
    </g>
    <g clip-path="url(#pdde4af0519)">
     <use xlink:href="#C0_0_82a6bb7d14" x="538.997333" y="228.551801" style="stroke: #000000"/>
    </g>
    <g clip-path="url(#pdde4af0519)">
     <use xlink:href="#C0_0_82a6bb7d14" x="538.997333" y="206.834349" style="fill-opacity: 0.180392"/>
    </g>
    <g clip-path="url(#pdde4af0519)">
     <use xlink:href="#C0_0_82a6bb7d14" x="563.68" y="271.986704" style="stroke: #000000"/>
    </g>
    <g clip-path="url(#pdde4af0519)">
     <use xlink:href="#C0_0_82a6bb7d14" x="563.68" y="250.269252" style="fill-opacity: 0.180392"/>
    </g>
    <g clip-path="url(#pdde4af0519)">
     <use xlink:href="#C0_0_82a6bb7d14" x="563.68" y="228.551801" style="fill-opacity: 0.180392"/>
    </g>
    <g clip-path="url(#pdde4af0519)">
     <use xlink:href="#C0_0_82a6bb7d14" x="563.68" y="206.834349" style="stroke: #000000"/>
    </g>
    <g clip-path="url(#pdde4af0519)">
     <use xlink:href="#C0_0_82a6bb7d14" x="588.362667" y="271.986704" style="fill-opacity: 0.180392"/>
    </g>
    <g clip-path="url(#pdde4af0519)">
     <use xlink:href="#C0_0_82a6bb7d14" x="588.362667" y="250.269252" style="stroke: #000000"/>
    </g>
    <g clip-path="url(#pdde4af0519)">
     <use xlink:href="#C0_0_82a6bb7d14" x="588.362667" y="228.551801" style="fill-opacity: 0.180392"/>
    </g>
    <g clip-path="url(#pdde4af0519)">
     <use xlink:href="#C0_0_82a6bb7d14" x="588.362667" y="206.834349" style="stroke: #000000"/>
    </g>
    <g clip-path="url(#pdde4af0519)">
     <use xlink:href="#C0_0_82a6bb7d14" x="613.045333" y="271.986704" style="fill-opacity: 0.180392"/>
    </g>
    <g clip-path="url(#pdde4af0519)">
     <use xlink:href="#C0_0_82a6bb7d14" x="613.045333" y="250.269252" style="fill-opacity: 0.180392"/>
    </g>
    <g clip-path="url(#pdde4af0519)">
     <use xlink:href="#C0_0_82a6bb7d14" x="613.045333" y="228.551801" style="stroke: #000000"/>
    </g>
    <g clip-path="url(#pdde4af0519)">
     <use xlink:href="#C0_0_82a6bb7d14" x="613.045333" y="206.834349" style="stroke: #000000"/>
    </g>
    <g clip-path="url(#pdde4af0519)">
     <use xlink:href="#C0_0_82a6bb7d14" x="637.728" y="271.986704" style="stroke: #000000"/>
    </g>
    <g clip-path="url(#pdde4af0519)">
     <use xlink:href="#C0_0_82a6bb7d14" x="637.728" y="250.269252" style="stroke: #000000"/>
    </g>
    <g clip-path="url(#pdde4af0519)">
     <use xlink:href="#C0_0_82a6bb7d14" x="637.728" y="228.551801" style="stroke: #000000"/>
    </g>
    <g clip-path="url(#pdde4af0519)">
     <use xlink:href="#C0_0_82a6bb7d14" x="637.728" y="206.834349" style="fill-opacity: 0.180392"/>
    </g>
    <g clip-path="url(#pdde4af0519)">
     <use xlink:href="#C0_0_82a6bb7d14" x="662.410667" y="271.986704" style="stroke: #000000"/>
    </g>
    <g clip-path="url(#pdde4af0519)">
     <use xlink:href="#C0_0_82a6bb7d14" x="662.410667" y="250.269252" style="stroke: #000000"/>
    </g>
    <g clip-path="url(#pdde4af0519)">
     <use xlink:href="#C0_0_82a6bb7d14" x="662.410667" y="228.551801" style="fill-opacity: 0.180392"/>
    </g>
    <g clip-path="url(#pdde4af0519)">
     <use xlink:href="#C0_0_82a6bb7d14" x="662.410667" y="206.834349" style="stroke: #000000"/>
    </g>
    <g clip-path="url(#pdde4af0519)">
     <use xlink:href="#C0_0_82a6bb7d14" x="687.093333" y="271.986704" style="stroke: #000000"/>
    </g>
    <g clip-path="url(#pdde4af0519)">
     <use xlink:href="#C0_0_82a6bb7d14" x="687.093333" y="250.269252" style="fill-opacity: 0.180392"/>
    </g>
    <g clip-path="url(#pdde4af0519)">
     <use xlink:href="#C0_0_82a6bb7d14" x="687.093333" y="228.551801" style="stroke: #000000"/>
    </g>
    <g clip-path="url(#pdde4af0519)">
     <use xlink:href="#C0_0_82a6bb7d14" x="687.093333" y="206.834349" style="stroke: #000000"/>
    </g>
    <g clip-path="url(#pdde4af0519)">
     <use xlink:href="#C0_0_82a6bb7d14" x="711.776" y="271.986704" style="fill-opacity: 0.180392"/>
    </g>
    <g clip-path="url(#pdde4af0519)">
     <use xlink:href="#C0_0_82a6bb7d14" x="711.776" y="250.269252" style="stroke: #000000"/>
    </g>
    <g clip-path="url(#pdde4af0519)">
     <use xlink:href="#C0_0_82a6bb7d14" x="711.776" y="228.551801" style="stroke: #000000"/>
    </g>
    <g clip-path="url(#pdde4af0519)">
     <use xlink:href="#C0_0_82a6bb7d14" x="711.776" y="206.834349" style="stroke: #000000"/>
    </g>
    <g clip-path="url(#pdde4af0519)">
     <use xlink:href="#C0_0_82a6bb7d14" x="736.458667" y="271.986704" style="stroke: #000000"/>
    </g>
    <g clip-path="url(#pdde4af0519)">
     <use xlink:href="#C0_0_82a6bb7d14" x="736.458667" y="250.269252" style="stroke: #000000"/>
    </g>
    <g clip-path="url(#pdde4af0519)">
     <use xlink:href="#C0_0_82a6bb7d14" x="736.458667" y="228.551801" style="stroke: #000000"/>
    </g>
    <g clip-path="url(#pdde4af0519)">
     <use xlink:href="#C0_0_82a6bb7d14" x="736.458667" y="206.834349" style="stroke: #000000"/>
    </g>
   </g>
  </g>
  <g id="axes_3">
   <g id="patch_6">
    <path d="M 149.76 277.416066 
L 104 277.416066 
L 104 266.557341 
L 149.76 266.557341 
z
" clip-path="url(#p07e06c2def)" style="stroke: #000000; stroke-linejoin: miter"/>
   </g>
   <g id="patch_7">
    <path d="M 149.76 255.698615 
L 113.363595 255.698615 
L 113.363595 244.839889 
L 149.76 244.839889 
z
" clip-path="url(#p07e06c2def)" style="stroke: #000000; stroke-linejoin: miter"/>
   </g>
   <g id="patch_8">
    <path d="M 149.76 233.981163 
L 114.246748 233.981163 
L 114.246748 223.122438 
L 149.76 223.122438 
z
" clip-path="url(#p07e06c2def)" style="stroke: #000000; stroke-linejoin: miter"/>
   </g>
   <g id="patch_9">
    <path d="M 149.76 212.263712 
L 115.01037 212.263712 
L 115.01037 201.404986 
L 149.76 201.404986 
z
" clip-path="url(#p07e06c2def)" style="stroke: #000000; stroke-linejoin: miter"/>
   </g>
   <g id="matplotlib.axis_4">
    <g id="xtick_1">
     <g id="line2d_5">
      <path d="M 149.76 284.8 
L 149.76 194.021053 
" clip-path="url(#p07e06c2def)" style="fill: none; stroke: #b0b0b0; stroke-width: 0.8; stroke-linecap: square"/>
     </g>
     <g id="line2d_6">
      <defs>
       <path id="m808d7fdb0a" d="M 0 0 
L 0 3.5 
" style="stroke: #000000; stroke-width: 0.8"/>
      </defs>
      <g>
       <use xlink:href="#m808d7fdb0a" x="149.76" y="284.8" style="stroke: #000000; stroke-width: 0.8"/>
      </g>
     </g>
     <g id="text_5">
      <!-- 0 -->
      <g transform="translate(146.57875 299.398438) scale(0.1 -0.1)">
       <use xlink:href="#DejaVuSans-30"/>
      </g>
     </g>
    </g>
    <g id="xtick_2">
     <g id="line2d_7">
      <path d="M 119.662405 284.8 
L 119.662405 194.021053 
" clip-path="url(#p07e06c2def)" style="fill: none; stroke: #b0b0b0; stroke-width: 0.8; stroke-linecap: square"/>
     </g>
     <g id="line2d_8">
      <g>
       <use xlink:href="#m808d7fdb0a" x="119.662405" y="284.8" style="stroke: #000000; stroke-width: 0.8"/>
      </g>
     </g>
     <g id="text_6">
      <!-- 1 -->
      <g transform="translate(116.481155 299.398438) scale(0.1 -0.1)">
       <use xlink:href="#DejaVuSans-31"/>
      </g>
     </g>
    </g>
    <g id="text_7">
     <!-- 1e8 -->
     <g transform="translate(130.881875 312.076563) scale(0.1 -0.1)">
      <use xlink:href="#DejaVuSans-31"/>
      <use xlink:href="#DejaVuSans-65" transform="translate(63.623047 0)"/>
      <use xlink:href="#DejaVuSans-38" transform="translate(125.146484 0)"/>
     </g>
    </g>
   </g>
   <g id="patch_10">
    <path d="M 104 284.8 
L 149.76 284.8 
" style="fill: none; stroke: #000000; stroke-width: 0.8; stroke-linejoin: miter; stroke-linecap: square"/>
   </g>
  </g>
  <g id="axes_4">
   <g id="patch_11">
    <path d="M 378.56 181.052632 
L 748.8 181.052632 
L 748.8 38.4 
L 378.56 38.4 
z
" style="fill: #ffffff"/>
   </g>
   <g id="matplotlib.axis_5">
    <g id="ytick_9">
     <g id="line2d_9">
      <path d="M 378.56 181.052632 
L 748.8 181.052632 
" clip-path="url(#p6f432f7be2)" style="fill: none; stroke: #b0b0b0; stroke-width: 0.8; stroke-linecap: square"/>
     </g>
     <g id="line2d_10">
      <defs>
       <path id="m0aaaa6ca45" d="M 0 0 
L -3.5 0 
" style="stroke: #000000; stroke-width: 0.8"/>
      </defs>
      <g>
       <use xlink:href="#m0aaaa6ca45" x="378.56" y="181.052632" style="stroke: #000000; stroke-width: 0.8"/>
      </g>
     </g>
     <g id="text_8">
      <!-- 0.00 -->
      <g transform="translate(349.294375 184.85185) scale(0.1 -0.1)">
       <use xlink:href="#DejaVuSans-30"/>
       <use xlink:href="#DejaVuSans-2e" transform="translate(63.623047 0)"/>
       <use xlink:href="#DejaVuSans-30" transform="translate(95.410156 0)"/>
       <use xlink:href="#DejaVuSans-30" transform="translate(159.033203 0)"/>
      </g>
     </g>
    </g>
    <g id="ytick_10">
     <g id="line2d_11">
      <path d="M 378.56 157.463648 
L 748.8 157.463648 
" clip-path="url(#p6f432f7be2)" style="fill: none; stroke: #b0b0b0; stroke-width: 0.8; stroke-linecap: square"/>
     </g>
     <g id="line2d_12">
      <g>
       <use xlink:href="#m0aaaa6ca45" x="378.56" y="157.463648" style="stroke: #000000; stroke-width: 0.8"/>
      </g>
     </g>
     <g id="text_9">
      <!-- 0.25 -->
      <g transform="translate(349.294375 161.262867) scale(0.1 -0.1)">
       <use xlink:href="#DejaVuSans-30"/>
       <use xlink:href="#DejaVuSans-2e" transform="translate(63.623047 0)"/>
       <use xlink:href="#DejaVuSans-32" transform="translate(95.410156 0)"/>
       <use xlink:href="#DejaVuSans-35" transform="translate(159.033203 0)"/>
      </g>
     </g>
    </g>
    <g id="ytick_11">
     <g id="line2d_13">
      <path d="M 378.56 133.874665 
L 748.8 133.874665 
" clip-path="url(#p6f432f7be2)" style="fill: none; stroke: #b0b0b0; stroke-width: 0.8; stroke-linecap: square"/>
     </g>
     <g id="line2d_14">
      <g>
       <use xlink:href="#m0aaaa6ca45" x="378.56" y="133.874665" style="stroke: #000000; stroke-width: 0.8"/>
      </g>
     </g>
     <g id="text_10">
      <!-- 0.50 -->
      <g transform="translate(349.294375 137.673883) scale(0.1 -0.1)">
       <use xlink:href="#DejaVuSans-30"/>
       <use xlink:href="#DejaVuSans-2e" transform="translate(63.623047 0)"/>
       <use xlink:href="#DejaVuSans-35" transform="translate(95.410156 0)"/>
       <use xlink:href="#DejaVuSans-30" transform="translate(159.033203 0)"/>
      </g>
     </g>
    </g>
    <g id="ytick_12">
     <g id="line2d_15">
      <path d="M 378.56 110.285681 
L 748.8 110.285681 
" clip-path="url(#p6f432f7be2)" style="fill: none; stroke: #b0b0b0; stroke-width: 0.8; stroke-linecap: square"/>
     </g>
     <g id="line2d_16">
      <g>
       <use xlink:href="#m0aaaa6ca45" x="378.56" y="110.285681" style="stroke: #000000; stroke-width: 0.8"/>
      </g>
     </g>
     <g id="text_11">
      <!-- 0.75 -->
      <g transform="translate(349.294375 114.0849) scale(0.1 -0.1)">
       <use xlink:href="#DejaVuSans-30"/>
       <use xlink:href="#DejaVuSans-2e" transform="translate(63.623047 0)"/>
       <use xlink:href="#DejaVuSans-37" transform="translate(95.410156 0)"/>
       <use xlink:href="#DejaVuSans-35" transform="translate(159.033203 0)"/>
      </g>
     </g>
    </g>
    <g id="ytick_13">
     <g id="line2d_17">
      <path d="M 378.56 86.696698 
L 748.8 86.696698 
" clip-path="url(#p6f432f7be2)" style="fill: none; stroke: #b0b0b0; stroke-width: 0.8; stroke-linecap: square"/>
     </g>
     <g id="line2d_18">
      <g>
       <use xlink:href="#m0aaaa6ca45" x="378.56" y="86.696698" style="stroke: #000000; stroke-width: 0.8"/>
      </g>
     </g>
     <g id="text_12">
      <!-- 1.00 -->
      <g transform="translate(349.294375 90.495916) scale(0.1 -0.1)">
       <use xlink:href="#DejaVuSans-31"/>
       <use xlink:href="#DejaVuSans-2e" transform="translate(63.623047 0)"/>
       <use xlink:href="#DejaVuSans-30" transform="translate(95.410156 0)"/>
       <use xlink:href="#DejaVuSans-30" transform="translate(159.033203 0)"/>
      </g>
     </g>
    </g>
    <g id="ytick_14">
     <g id="line2d_19">
      <path d="M 378.56 63.107714 
L 748.8 63.107714 
" clip-path="url(#p6f432f7be2)" style="fill: none; stroke: #b0b0b0; stroke-width: 0.8; stroke-linecap: square"/>
     </g>
     <g id="line2d_20">
      <g>
       <use xlink:href="#m0aaaa6ca45" x="378.56" y="63.107714" style="stroke: #000000; stroke-width: 0.8"/>
      </g>
     </g>
     <g id="text_13">
      <!-- 1.25 -->
      <g transform="translate(349.294375 66.906933) scale(0.1 -0.1)">
       <use xlink:href="#DejaVuSans-31"/>
       <use xlink:href="#DejaVuSans-2e" transform="translate(63.623047 0)"/>
       <use xlink:href="#DejaVuSans-32" transform="translate(95.410156 0)"/>
       <use xlink:href="#DejaVuSans-35" transform="translate(159.033203 0)"/>
      </g>
     </g>
    </g>
    <g id="ytick_15">
     <g id="line2d_21">
      <path d="M 378.56 39.518731 
L 748.8 39.518731 
" clip-path="url(#p6f432f7be2)" style="fill: none; stroke: #b0b0b0; stroke-width: 0.8; stroke-linecap: square"/>
     </g>
     <g id="line2d_22">
      <g>
       <use xlink:href="#m0aaaa6ca45" x="378.56" y="39.518731" style="stroke: #000000; stroke-width: 0.8"/>
      </g>
     </g>
     <g id="text_14">
      <!-- 1.50 -->
      <g transform="translate(349.294375 43.31795) scale(0.1 -0.1)">
       <use xlink:href="#DejaVuSans-31"/>
       <use xlink:href="#DejaVuSans-2e" transform="translate(63.623047 0)"/>
       <use xlink:href="#DejaVuSans-35" transform="translate(95.410156 0)"/>
       <use xlink:href="#DejaVuSans-30" transform="translate(159.033203 0)"/>
      </g>
     </g>
    </g>
    <g id="text_15">
     <!-- Intersection size -->
     <g transform="translate(343.214688 150.75366) rotate(-90) scale(0.1 -0.1)">
      <defs>
       <path id="DejaVuSans-49" d="M 628 4666 
L 1259 4666 
L 1259 0 
L 628 0 
L 628 4666 
z
" transform="scale(0.015625)"/>
       <path id="DejaVuSans-20" transform="scale(0.015625)"/>
      </defs>
      <use xlink:href="#DejaVuSans-49"/>
      <use xlink:href="#DejaVuSans-6e" transform="translate(29.492188 0)"/>
      <use xlink:href="#DejaVuSans-74" transform="translate(92.871094 0)"/>
      <use xlink:href="#DejaVuSans-65" transform="translate(132.080078 0)"/>
      <use xlink:href="#DejaVuSans-72" transform="translate(193.603516 0)"/>
      <use xlink:href="#DejaVuSans-73" transform="translate(234.716797 0)"/>
      <use xlink:href="#DejaVuSans-65" transform="translate(286.816406 0)"/>
      <use xlink:href="#DejaVuSans-63" transform="translate(348.339844 0)"/>
      <use xlink:href="#DejaVuSans-74" transform="translate(403.320312 0)"/>
      <use xlink:href="#DejaVuSans-69" transform="translate(442.529297 0)"/>
      <use xlink:href="#DejaVuSans-6f" transform="translate(470.3125 0)"/>
      <use xlink:href="#DejaVuSans-6e" transform="translate(531.494141 0)"/>
      <use xlink:href="#DejaVuSans-20" transform="translate(594.873047 0)"/>
      <use xlink:href="#DejaVuSans-73" transform="translate(626.660156 0)"/>
      <use xlink:href="#DejaVuSans-69" transform="translate(678.759766 0)"/>
      <use xlink:href="#DejaVuSans-7a" transform="translate(706.542969 0)"/>
      <use xlink:href="#DejaVuSans-65" transform="translate(759.033203 0)"/>
     </g>
    </g>
    <g id="text_16">
     <!-- 1e8 -->
     <g transform="translate(378.56 35.4) scale(0.1 -0.1)">
      <use xlink:href="#DejaVuSans-31"/>
      <use xlink:href="#DejaVuSans-65" transform="translate(63.623047 0)"/>
      <use xlink:href="#DejaVuSans-38" transform="translate(125.146484 0)"/>
     </g>
    </g>
   </g>
   <g id="patch_12">
    <path d="M 378.56 181.052632 
L 378.56 38.4 
" style="fill: none; stroke: #000000; stroke-width: 0.8; stroke-linejoin: miter; stroke-linecap: square"/>
   </g>
   <g id="patch_13">
    <path d="M 384.730667 181.052632 
L 397.072 181.052632 
L 397.072 45.192982 
L 384.730667 45.192982 
z
" clip-path="url(#p6f432f7be2)" style="stroke: #000000; stroke-linejoin: miter"/>
   </g>
   <g id="patch_14">
    <path d="M 409.413333 181.052632 
L 421.754667 181.052632 
L 421.754667 104.286881 
L 409.413333 104.286881 
z
" clip-path="url(#p6f432f7be2)" style="stroke: #000000; stroke-linejoin: miter"/>
   </g>
   <g id="patch_15">
    <path d="M 434.096 181.052632 
L 446.437333 181.052632 
L 446.437333 132.474983 
L 434.096 132.474983 
z
" clip-path="url(#p6f432f7be2)" style="stroke: #000000; stroke-linejoin: miter"/>
   </g>
   <g id="patch_16">
    <path d="M 458.778667 181.052632 
L 471.12 181.052632 
L 471.12 137.974205 
L 458.778667 137.974205 
z
" clip-path="url(#p6f432f7be2)" style="stroke: #000000; stroke-linejoin: miter"/>
   </g>
   <g id="patch_17">
    <path d="M 483.461333 181.052632 
L 495.802667 181.052632 
L 495.802667 180.608056 
L 483.461333 180.608056 
z
" clip-path="url(#p6f432f7be2)" style="stroke: #000000; stroke-linejoin: miter"/>
   </g>
   <g id="patch_18">
    <path d="M 508.144 181.052632 
L 520.485333 181.052632 
L 520.485333 180.92748 
L 508.144 180.92748 
z
" clip-path="url(#p6f432f7be2)" style="stroke: #000000; stroke-linejoin: miter"/>
   </g>
   <g id="patch_19">
    <path d="M 532.826667 181.052632 
L 545.168 181.052632 
L 545.168 177.503688 
L 532.826667 177.503688 
z
" clip-path="url(#p6f432f7be2)" style="stroke: #000000; stroke-linejoin: miter"/>
   </g>
   <g id="patch_20">
    <path d="M 557.509333 181.052632 
L 569.850667 181.052632 
L 569.850667 180.832069 
L 557.509333 180.832069 
z
" clip-path="url(#p6f432f7be2)" style="stroke: #000000; stroke-linejoin: miter"/>
   </g>
   <g id="patch_21">
    <path d="M 582.192 181.052632 
L 594.533333 181.052632 
L 594.533333 174.91943 
L 582.192 174.91943 
z
" clip-path="url(#p6f432f7be2)" style="stroke: #000000; stroke-linejoin: miter"/>
   </g>
   <g id="patch_22">
    <path d="M 606.874667 181.052632 
L 619.216 181.052632 
L 619.216 149.470547 
L 606.874667 149.470547 
z
" clip-path="url(#p6f432f7be2)" style="stroke: #000000; stroke-linejoin: miter"/>
   </g>
   <g id="patch_23">
    <path d="M 631.557333 181.052632 
L 643.898667 181.052632 
L 643.898667 180.828354 
L 631.557333 180.828354 
z
" clip-path="url(#p6f432f7be2)" style="stroke: #000000; stroke-linejoin: miter"/>
   </g>
   <g id="patch_24">
    <path d="M 656.24 181.052632 
L 668.581333 181.052632 
L 668.581333 180.402755 
L 656.24 180.402755 
z
" clip-path="url(#p6f432f7be2)" style="stroke: #000000; stroke-linejoin: miter"/>
   </g>
   <g id="patch_25">
    <path d="M 680.922667 181.052632 
L 693.264 181.052632 
L 693.264 180.112796 
L 680.922667 180.112796 
z
" clip-path="url(#p6f432f7be2)" style="stroke: #000000; stroke-linejoin: miter"/>
   </g>
   <g id="patch_26">
    <path d="M 705.605333 181.052632 
L 717.946667 181.052632 
L 717.946667 159.710191 
L 705.605333 159.710191 
z
" clip-path="url(#p6f432f7be2)" style="stroke: #000000; stroke-linejoin: miter"/>
   </g>
   <g id="patch_27">
    <path d="M 730.288 181.052632 
L 742.629333 181.052632 
L 742.629333 176.058999 
L 730.288 176.058999 
z
" clip-path="url(#p6f432f7be2)" style="stroke: #000000; stroke-linejoin: miter"/>
   </g>
  </g>
 </g>
 <defs>
  <clipPath id="pde4a207844">
   <rect x="104" y="194.021053" width="644.8" height="90.778947"/>
  </clipPath>
  <clipPath id="pdde4af0519">
   <rect x="378.56" y="194.021053" width="370.24" height="90.778947"/>
  </clipPath>
  <clipPath id="p07e06c2def">
   <rect x="104" y="194.021053" width="45.76" height="90.778947"/>
  </clipPath>
  <clipPath id="p6f432f7be2">
   <rect x="378.56" y="38.4" width="370.24" height="142.652632"/>
  </clipPath>
 </defs>
</svg>
